<svg xmlns="http://www.w3.org/2000/svg" viewBox="0 0 512 512" role="img" aria-labelledby="title desc">
  <title id="title">AutoQgen</title>
  <desc id="desc">White AutoQ mark on a purple gradient square</desc>
  <defs>
    <linearGradient id="background" x1="34" y1="32" x2="480" y2="480" gradientUnits="userSpaceOnUse">
      <stop stop-color="#7438F2"/>
      <stop offset="1" stop-color="#241BD3"/>
    </linearGradient>
  </defs>
  <rect x="24" y="24" width="464" height="464" rx="112" fill="url(#background)"/>
  <path fill="#fff" d="M91 356 181 199c9-16 30-16 39 0l70 119c9 15 4 34-11 43-15 8-34 3-43-12l-35-60-39 68c-6 10-16 16-28 16h-31c-13 0-19-7-12-17Zm102-99-20 35h41l-21-35Z"/>
  <path fill="#fff" fill-rule="evenodd" d="M331 170c-55 0-100 45-100 100s45 100 100 100c18 0 35-5 49-13l28 28c8 8 20 8 28 0s8-20 0-28l-27-27c14-17 22-38 22-60 0-55-45-100-100-100Zm0 43c32 0 57 25 57 57s-25 57-57 57-57-25-57-57 25-57 57-57Z" clip-rule="evenodd"/>
  <path fill="#fff" d="m352 328 39 39-25 25-39-39z"/>
</svg>
